<svg xmlns="http://www.w3.org/2000/svg" width="150" height="70" viewBox="0,0,150,70"><path fill="#444" d="M54.52 41.18L54.58 41.24L54.68 41.35Q54.30 41.26 53.91 41.26L53.96 41.31L53.91 41.26Q52.06 41.12 50.20 42.20L50.26 42.27L50.30 42.30Q48.56 43.70 48.56 46.14L48.59 46.18L48.52 46.10Q48.54 50.53 50.50 52.24L50.57 52.32L50.46 52.20Q51.81 53.85 54.75 53.85L54.72 53.82L54.74 53.84Q55.04 53.84 55.43 53.84L55.51 53.92L55.49 53.91Q57.63 53.84 59.10 51.74L59.07 51.71L59.02 51.66Q60.35 49.71 60.26 47.41L60.35 47.50L60.30 47.45Q60.44 46.91 60.44 46.37L60.47 46.40L60.32 46.26Q60.33 43.96 58.57 42.47L58.66 42.56L58.65 42.55Q56.87 41.04 54.57 41.23ZM60.40 54.36L60.41 54.37L60.45 54.41Q59.13 56.86 54.33 57.00L54.34 57.01L54.23 56.90Q49.86 57.03 47.80 54.98L47.83 55.01L47.77 54.94Q45.97 52.76 44.95 46.59L45.02 46.66L44.87 46.52Q44.56 44.34 44.56 42.73L44.56 42.72L44.54 42.70Q44.59 40.46 45.52 39.09L45.57 39.14L45.45 39.02Q47.22 37.26 51.04 37.26L51.01 37.24L51.07 37.30Q59.21 37.31 61.66 40.64L61.69 40.67L61.74 40.72Q61.92 39.63 62.46 37.57L62.44 37.55L62.48 37.60Q64.10 37.21 67.23 36.18L67.26 36.21L67.25 36.20Q64.04 43.36 63.75 51.49L63.67 51.41L63.68 51.42Q63.50 59.46 66.24 66.95L66.11 66.82L66.22 66.94Q64.03 66.16 61.72 65.82L61.76 65.85L61.71 65.80Q60.52 60.70 60.38 54.34ZM61.41 66.24L61.29 66.12L61.26 66.08Q62.23 66.33 64.05 66.72L64.04 66.71L64.13 66.80Q64.35 67.66 65.09 69.47L65.14 69.52L65.20 69.59Q68.39 70.37 71.32 72.04L71.37 72.08L71.48 72.19Q66.16 63.59 66.16 52.63L66.27 52.75L66.13 52.60Q66.17 44.47 69.35 37.03L69.36 37.04L69.35 37.03Q68.49 37.44 66.73 38.27L66.83 38.37L66.67 38.21Q67.17 37.30 68.01 35.29L67.91 35.19L67.87 35.16Q66.10 36.08 61.99 37.20L61.80 37.02L61.81 37.02Q61.73 37.82 61.34 39.34L61.30 39.30L61.38 39.39Q58.79 36.94 50.91 36.74L50.81 36.64L50.93 36.76Q46.81 36.66 45.05 38.57L45.07 38.59L45.05 38.57Q44.07 40.03 44.11 42.48L44.03 42.40L44.16 42.53Q44.20 46.28 45.47 51.13L45.56 51.21L45.56 51.22Q46.36 54.27 47.53 55.49L47.45 55.41L48.03 55.99L48.04 56.00Q49.46 59.48 56.46 59.77L56.53 59.84L56.49 59.80Q57.89 59.92 60.24 59.53L60.13 59.42L60.23 59.52Q60.57 63.24 61.35 66.18ZM57.00 44.20L56.95 44.16L57.07 44.28Q58.35 44.19 59.43 44.58L59.55 44.70L59.49 44.64Q59.65 45.24 59.80 46.03L59.89 46.11L59.80 46.03Q59.91 46.73 59.82 47.51L59.87 47.56L59.98 47.67Q59.86 50.00 58.54 51.67L58.54 51.67L58.53 51.66Q57.17 53.63 54.77 53.38L54.69 53.30L54.75 53.36Q53.09 53.37 51.87 52.83L51.83 52.79L51.82 52.78Q51.28 51.65 51.28 50.09L51.46 50.26L51.32 50.12Q51.36 49.78 51.36 49.38L51.29 49.31L51.38 49.41Q51.32 47.09 53.03 45.59L53.00 45.57L53.10 45.66Q54.77 44.13 57.02 44.22Z"></path><path fill="#444" d="M83.68 54.18L83.69 54.20L83.72 54.22Q78.26 53.41 75.91 51.55L75.89 51.53L75.96 51.60Q73.62 49.75 73.08 45.89L73.11 45.91L73.01 45.81Q73.01 45.37 72.57 39.25L72.59 39.28L72.56 39.25Q72.68 37.80 72.58 36.18L72.48 36.08L72.60 36.20Q72.34 29.68 75.18 27.43L75.16 27.41L75.09 27.33Q78.60 24.73 88.59 23.85L88.49 23.75L88.64 23.90Q90.27 23.62 92.37 23.67L92.41 23.71L92.42 23.72Q92.30 23.59 96.12 23.59L96.23 23.71L96.20 23.68Q97.35 23.75 99.55 23.94L99.54 23.94L99.56 23.96Q98.86 25.12 97.54 29.08L97.57 29.11L97.44 28.99Q94.80 27.47 90.94 27.47L91.00 27.53L91.07 27.61Q90.04 27.55 89.01 27.65L89.00 27.64L88.93 27.56Q82.37 28.16 79.14 30.70L79.16 30.72L79.11 30.67Q76.67 32.87 76.47 37.18L76.38 37.09L76.49 37.20Q76.39 37.93 76.44 39.55L76.33 39.44L76.31 39.42Q76.64 45.82 79.72 48.51L79.53 48.32L79.53 48.32Q82.48 50.98 88.89 51.37L88.85 51.32L88.73 51.20Q92.84 51.49 96.70 49.19L96.76 49.25L96.67 49.16Q97.56 52.79 98.35 54.56L98.27 54.48L98.36 54.57Q95.67 54.91 93.56 54.86L93.42 54.72L93.54 54.84Q87.73 54.71 83.72 54.22ZM103.19 59.06L103.05 58.91L103.19 59.06Q100.75 55.05 99.87 51.72L99.96 51.82L100.04 51.89Q99.36 52.09 98.09 52.58L98.07 52.56L98.19 52.68Q97.70 51.61 97.46 50.54L97.41 50.48L96.88 48.24L96.97 48.33Q92.68 50.90 88.67 50.75L88.69 50.77L88.77 50.85Q83.23 50.55 80.24 48.30L80.21 48.27L80.17 48.23Q78.82 45.99 78.91 42.22L78.92 42.23L78.80 42.11Q79.09 36.42 82.27 33.68L82.35 33.76L82.35 33.76Q84.96 31.18 90.98 30.40L90.97 30.39L91.06 30.48Q92.14 30.38 93.07 30.38L92.93 30.25L92.98 30.30Q96.60 30.34 99.29 32.30L99.23 32.24L99.24 32.25Q99.81 29.44 101.37 25.28L101.48 25.39L101.53 25.44Q101.18 25.43 100.48 25.36L100.37 25.26L100.32 25.20Q99.71 25.23 99.37 25.23L99.30 25.16L99.26 25.12Q99.55 24.48 100.14 23.21L100.12 23.19L100.14 23.21Q99.88 23.25 96.68 23.15L96.61 23.09L96.71 23.18Q93.48 23.06 92.64 23.11L92.55 23.01L92.64 23.10Q79.04 23.45 74.58 26.78L74.59 26.78L74.58 26.78Q72.04 29.17 72.04 34.22L72.12 34.30L72.08 34.26Q72.16 35.76 72.31 39.23L72.18 39.11L72.26 39.19Q72.42 43.75 72.71 45.95L72.74 45.98L72.73 45.97Q73.19 49.95 75.24 51.91L75.14 51.81L75.27 51.94Q75.80 52.71 77.41 54.18L77.56 54.32L77.56 54.33Q81.73 56.59 88.48 57.57L88.51 57.60L88.43 57.52Q96.80 58.83 103.21 59.08Z"></path><path fill="#111" d="M27.91 54.55L27.92 54.57L27.94 54.58Q25.45 54.39 23.30 55.13L23.31 55.15L23.26 55.09Q23.95 50.44 24.09 46.43L24.11 46.44L24.24 46.58Q24.40 42.67 24.10 37.97L24.02 37.88L24.02 37.89Q22.16 37.35 21.18 36.86L21.31 36.99L20.84 33.14L20.69 32.99Q21.81 33.97 23.87 34.70L23.69 34.52L23.68 34.51Q23.52 31.90 22.98 28.38L22.96 28.36L23.01 28.41Q25.93 29.28 28.04 29.08L28.01 29.05L27.78 34.89L27.75 34.86Q29.66 34.87 31.38 34.23L31.30 34.15L31.31 34.17Q31.26 35.33 30.96 37.59L30.98 37.60L30.95 37.57Q29.13 38.15 27.81 38.15L27.66 38.00L27.73 38.08Q27.66 40.80 27.66 46.28L27.72 46.33L27.70 46.31Q27.76 51.71 27.86 54.50ZM31.81 33.39L31.82 33.41L31.87 33.45Q31.61 33.69 30.83 33.98L30.77 33.92L31.20 30.29L31.18 30.26Q30.23 30.74 28.42 31.03L28.34 30.95L28.50 31.11Q28.35 30.08 28.54 28.31L28.55 28.33L28.68 28.45Q27.82 28.48 27.09 28.48L27.17 28.55L27.17 28.55Q24.28 28.41 22.17 27.48L22.28 27.59L22.35 27.65Q22.92 30.77 23.26 33.95L23.14 33.83L23.15 33.83Q22.16 33.53 20.20 32.21L20.13 32.13L20.16 32.17Q20.49 33.73 20.79 37.20L20.83 37.24L20.94 37.35Q21.48 37.60 23.00 38.14L22.99 38.14L23.06 38.20Q23.03 38.95 23.08 40.76L23.00 40.69L23.49 40.74L23.80 40.95L23.77 40.92Q23.80 42.46 23.80 43.98L23.73 43.91L23.75 43.94Q23.87 50.42 22.84 56.00L22.81 55.96L22.79 55.95Q23.02 55.78 25.51 55.09L25.39 54.97L25.45 55.03Q25.48 55.89 25.33 57.65L25.29 57.61L25.37 57.69Q26.51 57.70 27.54 57.70L27.53 57.70L27.51 57.68Q29.58 57.54 31.69 58.28L31.76 58.35L31.82 58.42Q30.00 50.97 30.25 40.79L30.30 40.84L33.30 40.26L33.35 40.31Q33.51 39.20 33.61 37.88L33.64 37.91L33.89 35.32L33.80 35.24Q33.07 35.59 31.56 36.17L31.61 36.23L31.58 36.20Q32.04 34.55 31.94 34.11L31.90 34.07L31.88 34.05Q31.71 33.64 31.81 33.39Z"></path><path fill="#444" d="M117.26 38.58L117.25 38.57L117.12 38.44Q112.58 38.31 111.16 42.61L111.23 42.68L111.29 42.74Q110.83 44.15 110.69 45.52L110.70 45.53L110.73 45.57Q110.39 48.11 111.66 49.82L111.58 49.75L111.68 49.84Q113.31 51.27 116.49 51.32L116.51 51.34L116.48 51.31Q118.89 51.42 120.70 49.95L120.69 49.94L120.73 49.99Q122.56 48.53 122.56 46.23L122.58 46.25L122.44 46.12Q122.45 45.68 122.35 45.19L122.45 45.29L122.31 45.15Q122.02 38.54 117.12 38.45ZM116.96 54.43L117.15 54.62L117.05 54.52Q112.25 54.91 109.95 52.32L109.94 52.31L109.76 52.13Q109.61 53.60 109.02 55.36L109.07 55.40L108.94 55.28Q106.47 56.28 104.85 57.01L104.84 57.00L104.86 57.02Q107.60 49.29 107.60 40.92L107.70 41.01L107.59 40.91Q107.61 30.25 103.20 20.17L103.24 20.21L103.20 20.17Q106.17 21.87 107.89 22.45L107.99 22.56L108.00 22.57Q110.67 31.06 110.87 38.55L110.87 38.56L110.92 38.61Q112.78 35.18 117.58 35.23L117.62 35.27L117.53 35.18Q121.66 35.20 123.57 37.60L123.54 37.57L123.68 37.71Q125.84 40.46 126.04 45.06L126.09 45.11L126.20 45.22Q126.18 46.62 126.08 48.68L126.13 48.73L126.16 48.76Q126.10 50.60 124.97 52.07L124.92 52.02L124.96 52.06Q122.62 54.17 117.04 54.52ZM124.10 57.76L124.07 57.73L124.12 57.78Q126.16 57.90 128.06 57.02L127.99 56.95L127.97 56.93Q129.38 55.25 129.43 52.76L129.49 52.82L129.45 52.78Q129.40 52.09 129.20 50.58L129.18 50.55L129.16 50.53Q129.14 49.73 129.00 48.56L128.98 48.54L129.01 48.57Q127.83 42.30 125.82 39.65L125.84 39.68L125.92 39.75Q125.88 39.67 124.85 38.54L124.81 38.50L124.85 38.54Q124.63 38.27 123.95 37.24L123.99 37.29L123.84 37.14Q121.75 34.61 117.45 34.66L117.61 34.82L117.59 34.80Q114.83 34.74 113.22 35.52L113.33 35.63L113.33 35.64Q112.90 29.82 112.12 25.71L111.97 25.56L112.06 25.65Q111.04 25.36 109.13 24.88L109.26 25.00L109.25 25.00Q109.11 24.07 108.52 22.21L108.41 22.10L108.52 22.21Q105.22 21.01 102.33 19.00L102.41 19.08L102.37 19.04Q107.31 29.66 107.31 40.97L107.22 40.87L107.24 40.90Q107.33 49.94 104.14 57.92L104.18 57.95L104.02 57.79Q104.91 57.37 106.63 56.63L106.68 56.69L106.67 56.67Q106.39 57.67 105.60 59.62L105.66 59.68L105.67 59.69Q108.19 58.49 111.76 57.80L111.66 57.70L112.28 55.49L112.17 55.37Q115.14 57.56 124.05 57.71ZM119.20 41.41L119.34 41.54L119.26 41.47Q120.64 41.52 121.33 42.01L121.25 41.94L121.35 42.03Q121.74 42.67 122.03 45.26L121.96 45.19L121.88 45.12Q122.23 47.62 120.62 49.31L120.64 49.33L120.59 49.28Q119.04 51.03 116.54 50.89L116.46 50.80L116.59 50.93Q115.30 51.02 113.40 50.38L113.49 50.48L113.38 50.36Q113.15 49.80 113.15 49.11L113.15 49.11L113.22 49.17Q113.15 45.14 115.16 43.09L115.18 43.11L115.03 43.01L115.15 43.13Q116.99 41.35 119.24 41.45Z"></path></svg>
